<svg width="1180" height="1180" viewBox="0 0 1180 1180" fill="none" xmlns="http://www.w3.org/2000/svg">
<path d="M548 0.799939C483.2 6.53327 426.267 19.7333 372 41.7333C187.867 115.867 52.1333 278.267 12.6667 471.733C3.73333 516.267 0.666661 551.333 1.73333 602.533C2.53333 642.267 4.26666 660.533 10.1333 693.333C54 935.733 243.867 1125.6 486.667 1169.87C524.133 1176.67 540 1178 590.667 1178C641.467 1178 656.8 1176.8 694.667 1169.87C863.2 1139.2 1009.07 1038 1097.33 890.667C1139.6 820 1166.27 741.467 1176.93 656C1180.4 628.267 1180.4 550.4 1176.93 522.667C1160 387.2 1101.73 266.933 1007.33 172.667C912.533 78.1333 793.733 20.3999 658.667 3.19994C642.667 1.19994 563.067 -0.533395 548 0.799939ZM630 21.3333C689.333 25.5999 744.267 38.1333 798.4 59.4666C908 102.933 1000.67 178.267 1066.27 277.333C1157.47 415.333 1183.6 586.533 1137.73 746.667C1104.53 862.667 1032.8 967.2 934.667 1042.27C737.867 1192.8 464.267 1197.6 262.667 1054.13C155.867 978.133 77.8667 868 42.8 743.867C29.3333 696.267 23.0667 654.133 21.7333 602.667C17.7333 447.867 77.2 299.2 187.333 188.667C285.467 90.1333 411.467 31.8666 549.333 21.4666C570.133 19.8666 608.8 19.8666 630 21.3333Z" fill="white"/>
<path d="M586 47.7333C573.867 53.4667 571.867 59.2 570.933 90.9333L570.267 116H581.2H592V108.267C592 104.133 592.4 93.0667 592.933 83.7333C593.6 68.6667 594 66.6667 596.267 65.8667C602.4 64 604.8 72.8 598.933 75.3333C596.133 76.5333 595.867 77.3333 596.267 86L596.667 95.3333L600.667 94.9333C612.133 93.7333 618.667 88.5333 621.467 78.2667C624.667 66.2667 619.6 53.3333 610 48.8C602.4 45.2 592.267 44.8 586 47.7333Z" fill="white"/>
<path d="M538 49.9999C527.067 50.9333 517.867 51.7333 517.733 51.8666C516.933 52.1333 517.333 66.5333 518.133 68.5333C518.667 69.9999 520.667 70.6666 524 70.6666C528.933 70.6666 529.067 70.9333 529.867 75.5999C530.267 78.3999 530.933 87.1999 531.333 95.3333C531.733 103.333 532.4 112.267 532.8 114.933L533.467 119.733L543.733 119.067C549.333 118.667 554.133 118.267 554.133 118.133C554.267 118.133 553.6 107.2 552.667 93.9999C551.733 80.7999 551.2 69.5999 551.6 68.9333C551.867 68.3999 554.667 67.9999 557.6 67.9999H563.067L562.133 62.9333C561.733 60.2666 561.333 55.7333 561.333 52.9333C561.333 49.7333 560.8 48.1333 559.733 48.1333C558.8 48.2666 549.067 49.0666 538 49.9999Z" fill="white"/>
<path d="M650.667 51.5999C646.133 53.3333 641.2 57.8666 638.133 63.0666C635.6 67.4666 634.267 73.1999 632.133 90.7999C630.533 102.933 629.333 113.867 629.333 114.933C629.333 116.533 631.2 117.333 636.4 118C640.133 118.4 644.933 119.067 646.8 119.467L650.133 120.133L653.067 96.3999C656.267 71.3333 657.467 67.8666 662.8 70.7999C664.667 71.7333 665.333 73.5999 665.333 77.4666C665.333 82.6666 665.2 82.9333 662 82.1333C659.067 81.3333 658.667 81.7333 658 86.2666C657.6 89.0666 656.933 92.9333 656.667 94.9333C656.133 97.9999 656.667 98.7999 659.467 99.4666C662.667 100.267 662.8 100.667 662 107.2C661.6 110.933 660.933 115.6 660.533 117.6C659.867 121.067 659.867 121.067 670 122C675.6 122.533 680.533 122.667 680.933 122.133C682.267 120.933 686.533 85.9999 686.667 76.9333C686.667 60.5333 676.4 50.5333 659.733 50.7999C655.867 50.7999 651.733 51.1999 650.667 51.5999Z" fill="white"/>
<path d="M462.667 61.3334C441.067 71.4667 434.933 99.3334 450.267 117.2C459.867 128.533 478.267 132.8 491.333 126.8C502.267 121.733 510.8 110.267 512.8 97.7334C514.667 85.8667 506.533 69.8667 495.2 63.2C486.533 58.1334 471.467 57.2 462.667 61.3334ZM482.533 81.4667C490.533 84.2667 493.467 96.6667 487.6 103.333C485.467 106 482.933 107.067 478.4 107.6C472.8 108.267 471.733 108 468 104.267C464.8 100.933 464 99.0667 464 94.4C464.133 87.8667 465.867 84.9334 471.467 82C476.133 79.6 477.067 79.6 482.533 81.4667Z" fill="white"/>
<path d="M706.8 64.9333C706.133 67.7333 702.133 82.5333 698 97.8667C694 113.2 690.933 126 691.2 126.4C692.4 127.467 709.733 132 710.667 131.333C711.2 131.067 713.067 125.2 714.8 118.533L717.867 106.4L722.4 107.2C724.933 107.6 727.2 108.133 727.467 108.267C727.733 108.533 726.4 114.4 724.533 121.2C722.667 128 721.6 134.133 722.267 134.667C724.267 136.533 740.267 140.267 741.333 139.067C742.4 137.867 758.667 78.1333 758.667 75.2C758.667 74.2667 756.133 72.8 753.067 72C749.867 71.2 745.6 70 743.467 69.2C738.667 67.7333 738.4 67.8667 735.2 80.8L732.8 90.8L728 90C725.467 89.4667 723.2 88.9333 723.067 88.8C722.8 88.6667 724.133 83.3333 725.867 77.0667L729.067 65.6L720.8 63.3333C716.4 62.1333 711.6 60.8 710.4 60.5333C708.667 60 707.867 61.0667 706.8 64.9333Z" fill="white"/>
<path d="M402.667 80.9333C392 85.0666 383.2 88.5333 382.933 88.6666C382.4 89.0666 389.467 106.667 390.133 106.667C390.533 106.667 392.8 105.733 395.333 104.667C400.8 102.533 399.2 99.7333 410.8 130.267L417.867 149.067L426.667 145.867C431.467 144 435.867 142 436.4 141.467C437.067 140.8 433.6 130.267 428.8 117.867L420.267 95.3333L425.467 93.3333C428.267 92.2666 430.667 91.0666 430.667 90.6666C430.667 88.6666 424.133 74 423.2 73.7333C422.533 73.6 413.333 76.8 402.667 80.9333Z" fill="white"/>
<path d="M784.667 89.4666C770.133 92.9333 758.8 108.267 758.8 124.667C758.667 133.333 763.467 143.6 770.133 149.067C775.867 153.733 789.2 159.467 790.667 157.733C791.2 157.2 792.933 153.333 794.533 149.333C797.333 142.533 797.333 142 795.2 140.4C793.867 139.467 792.267 138.667 791.6 138.667C788.533 138.667 782.667 132.8 781.467 128.4C779.733 122.4 782 116.4 787.467 112.133C791.333 109.067 796 108.933 805.467 111.333C808.667 112.133 809.067 111.733 811.867 104.133C813.467 99.5999 814.533 95.4666 814 94.7999C813.067 93.1999 802.133 89.7333 795.333 88.7999C792.4 88.5333 787.6 88.7999 784.667 89.4666Z" fill="white"/>
<path d="M347.333 103.867C336.933 108.667 329.6 120.133 331.333 129.2C332.4 134.667 354.4 179.067 355.733 178.4C363.067 174.933 373.333 169.067 373.333 168.267C373.333 167.733 368.533 157.733 362.533 146.133C356.667 134.533 352.133 124.4 352.4 123.6C352.667 122.667 354.4 122 356.133 122C358.933 122 359.333 122.667 359.333 126.667C359.333 129.2 360.4 133.867 361.867 136.8C364 141.733 364.8 142.4 368.4 142.133C373.333 142 374.8 145.467 371.333 149.333C369.333 151.467 369.467 152.133 372.933 159.2C374.933 163.333 377.067 166.667 377.6 166.667C378.267 166.667 381.067 165.467 383.867 164C390.4 160.667 395.6 154.533 396.8 148.667C398.4 140 392.267 128.8 384 125.333C380.933 124.133 380 122.8 380 120.133C380 115.067 375.733 107.733 370.667 104.267C365.2 100.533 354.933 100.4 347.333 103.867Z" fill="white"/>
<path d="M831.067 113.2C827.733 114.8 824.267 117.733 822.267 120.933C818.667 126.533 798.667 162.4 798.667 163.2C798.667 164.667 816.533 173.333 817.467 172.4C818 171.867 823.2 162.667 829.067 152C834.933 141.333 840.667 132.133 841.867 131.333C843.467 130.4 844.667 130.8 846.8 132.933L849.733 135.733L838.133 156.4C831.867 167.867 826.667 177.6 826.667 178.267C826.667 179.467 841.733 188 843.867 188C844.533 188 850.667 178.133 857.333 166C868 146.8 869.467 143.333 869.6 137.467C869.6 125.867 862.933 116.8 851.067 112.533C844 110.133 837.6 110.267 831.067 113.2Z" fill="white"/>
<path d="M290.933 136.667C278.8 141.867 273.333 149.733 273.333 161.733C273.333 167.6 274.133 170.267 278.4 176.933C286.533 190.133 301.867 211.867 303.067 212C305.6 212 320.133 200.933 319.6 199.467C319.2 198.533 313.067 189.467 306 179.467C292.933 161.067 291.6 157.467 297.067 155.333C298.667 154.8 300.533 155.867 303.067 158.667L306.933 162.933L304.133 164.933C301.333 166.8 301.333 166.933 306.267 174C310.933 180.667 311.333 180.933 314.133 179.2C316.8 177.333 317.2 177.6 321.2 183.6C329.333 196 327.867 195.6 337.867 188.667L346.667 182.4L342.267 176.267C339.733 172.8 333.6 164 328.4 156.667C317.733 141.467 315.867 139.6 308.933 136.667C302.933 134.133 296.667 134.133 290.933 136.667Z" fill="white"/>
<path d="M564 150.133C561.467 150.4 552.8 151.333 544.667 152.133C411.733 165.333 289.333 242.133 217.467 357.333C137.067 486 128.933 648.267 196.267 783.333C246.4 883.867 331.867 961.467 436.533 1001.2C485.867 1019.87 533.6 1028.4 589.333 1028.53C633.2 1028.67 660.8 1025.33 701.867 1014.67C811.333 986.533 908.667 913.467 967.6 815.333C1036 701.6 1049.2 563.2 1003.73 438.667C995.6 416.267 976.667 377.6 964 357.467C935.6 311.867 898.4 271.2 855.2 238.667C793.2 191.733 723.6 163.467 644 152.667C629.467 150.667 574.133 148.933 564 150.133ZM647.067 165.867C744.8 180 830.933 223.733 898 293.467C962.933 360.933 1001.73 442.4 1014.93 538.667C1017.2 556 1017.2 621.6 1014.93 640C1004.4 721.067 973.2 794.4 922.267 858C908.4 875.2 876.4 907.2 859.2 921.067C804.533 964.8 741.467 994.667 675.2 1007.73C642.4 1014.27 630.533 1015.33 588.667 1015.33C555.067 1015.2 547.467 1014.8 530.667 1012.27C462.4 1001.47 406.4 979.733 352.133 943.067C249.067 873.2 182.4 764.4 166.4 640C164.133 621.6 164.133 556 166.4 538.667C177.867 455.067 207.867 384.533 258.933 320.8C272.933 303.6 304.8 271.6 322 257.733C388.267 204.667 465.467 172.933 550 164C566.667 162.267 630.4 163.467 647.067 165.867Z" fill="white"/>
<path d="M582.267 234.267C586.933 257.6 590.533 277.333 590.4 278.133C590.133 278.933 582.133 287.733 572.667 297.733L555.333 315.867L534 308.133L512.667 300.4L506.8 252.533C503.6 226.267 500.8 204.533 500.533 204.267C500.267 203.733 461.6 230.533 460.8 231.867C460.4 232.4 463.333 252.8 467.067 277.2L473.867 321.733L499.333 338.667L524.933 355.733L525.733 440.933C526.267 487.733 526.667 589.467 526.667 667.067V808L493.333 850.667L460.133 893.2L463.6 930.933C465.467 951.733 467.2 968.933 467.467 969.2C468.533 970.267 516.667 986.533 517.2 985.867C517.6 985.6 515.2 965.467 511.867 941.067L506 896.933L518 885.6C524.667 879.467 535.733 869.067 542.8 862.533L555.467 850.8L578.533 865.6C591.467 873.867 602.133 881.6 602.667 883.2C603.333 884.8 605.467 906.133 607.333 930.667C609.333 955.2 611.333 976.667 611.733 978.4C612.533 980.933 615.333 978.133 634.267 955.467L655.867 929.6L647.333 887.067C642.533 863.733 638.667 844.267 638.667 843.867C638.667 843.467 627.867 836.267 614.533 827.867L590.4 812.667L591.333 578.267L592.133 343.867L612.8 314.667L633.333 285.333L627.333 249.067C624 229.067 621.067 212.667 620.933 212.533C620.4 212.133 574.533 192 574.133 192C573.867 192 577.6 211.067 582.267 234.267Z" fill="white"/>
<path d="M646 206.267C644.8 212 642.933 220.267 642 224.667C641.067 229.067 640.4 232.8 640.533 233.067C640.8 233.2 646.267 234.267 652.8 235.467C669.867 238.4 697.733 245.867 714.533 252C722.533 254.933 729.467 257.333 729.867 257.333C731.733 257.333 745.2 223.2 743.867 222.133C741.467 220.4 712.667 210.4 697.333 206C685.867 202.8 654 196 650.267 196C648.8 196 647.6 198.933 646 206.267Z" fill="white"/>
<path d="M430.667 222.667C378 245.467 340.667 270.8 301.333 310.533C244.533 368 208.267 435.733 192.133 514.667C182.4 561.867 182.667 622 192.667 671.2C217.467 794.133 298.933 898.267 412.667 952.8C433.867 962.933 451.733 970.133 452.8 968.933C453.2 968.533 447.467 953.733 440.133 936L426.8 903.6L466 849.867L505.333 796L506 784.267C506.267 777.867 506.933 714.8 507.333 644C507.733 573.2 508.4 481.733 508.8 440.667L509.6 366L486.133 348.8C473.2 339.333 462.667 331.2 462.667 330.933C462.667 327.867 443.467 219.2 442.8 218.533C442.4 218.133 436.933 219.867 430.667 222.667ZM270 492.667C288.267 493.867 327.733 499.467 350.133 504C375.867 509.2 408.8 518.133 414.133 521.467C431.067 531.867 448.933 550.667 456.667 566.4C469.2 591.867 467.867 624.267 453.2 650.133C430.667 689.733 395.333 733.2 359.333 765.733C344.133 779.467 312.4 804 310 804C309.333 803.867 305.067 798.8 300.8 792.533C258.4 731.733 237.333 665.333 237.333 592.267C237.333 556.667 242.8 517.467 251.333 492.267C251.733 491.333 253.2 490.8 254.933 491.2C256.667 491.6 263.467 492.267 270 492.667Z" fill="white"/>
<path d="M755.2 236.267C754 240 750.933 247.733 748.4 253.2C744.8 261.2 744.133 263.6 745.6 264.4C746.533 264.933 754.533 269.333 763.333 274.267C780.267 283.6 793.733 292.267 808 303.067L816.667 309.6L826.667 299.067C832.267 293.333 838 286.8 839.6 284.533L842.533 280.4L826.933 269.067C818.4 262.8 805.867 254.4 799.333 250.4C786.267 242.4 761.2 229.333 758.933 229.333C758.133 229.333 756.533 232.4 755.2 236.267Z" fill="white"/>
<path d="M641.867 262.267C643.333 287.2 642.933 286.267 651.867 288C665.733 290.667 692.533 298.8 706.667 304.667L720.667 310.4L721.067 302.8C721.467 295.467 719.333 272.8 717.867 268.933C716.533 265.467 685.733 255.6 660.8 250.667C653.333 249.2 645.867 247.6 644.133 247.2L640.933 246.533L641.867 262.267Z" fill="white"/>
<path d="M735.2 282.8C735.6 287.333 736 297.2 736 304.667V318.267L742.533 321.867C753.733 327.867 772.133 340.4 784.667 350.533L796.667 360.133L797.6 355.733C799.733 346.8 802.667 325.867 802.667 320.533C802.667 315.333 802.267 314.933 792.4 307.733C775.6 295.867 752 282 739.467 276.8L734.267 274.667L735.2 282.8Z" fill="white"/>
<path d="M841.067 304.667L828.133 318.133L847.867 338.133C859.467 350 872.8 365.2 880.667 375.733L893.733 393.333L901.2 389.2C910.533 384 923.6 375.067 924.667 373.333C927.333 368.933 877.467 309.467 858.667 294.667L854 291.067L841.067 304.667Z" fill="white"/>
<path d="M621.067 329.6L601.333 352.667L601.467 362.667C601.867 408.267 604.8 532 605.467 532.667C606 533.067 640.267 518.8 681.733 500.8C723.2 482.8 757.867 467.867 758.8 467.733C762.533 466.8 778 491.733 779.467 501.333L780.267 506L712.667 565.733C675.6 598.667 644.8 626.4 644.533 627.333C644.133 628.267 635.867 668.667 626.133 717.2C613.333 780.667 608.8 805.6 609.867 806.4C610.667 807.067 620.4 812.267 631.333 817.867C642.4 823.467 652.133 828.533 653.067 829.2C654.133 829.867 656 838.533 658 851.867C659.733 863.867 661.333 873.867 661.6 874.133C662.4 874.933 680.933 869.467 693.6 864.533C762.933 838.133 822.667 782.667 854 715.6C891.2 636 890.133 542.667 851.2 464.8C812.933 388.267 743.2 331.333 662.933 311.333C638.667 305.333 643.6 303.2 621.067 329.6ZM620.4 382.8C661.333 388.933 699.6 406.667 731.333 434.4C741.2 442.933 756 459.067 756 461.2C756 461.6 747.733 465.6 737.733 469.867C727.6 474.267 694.933 488.4 665.2 501.333L610.933 524.8L610.133 484.133C609.733 461.733 608.933 429.333 608.533 412.267C607.867 388.933 608 381.333 609.2 381.333C610.133 381.333 615.2 382 620.4 382.8ZM790 520.267C794.933 533.867 799.6 553.733 801.467 569.733C803.467 587.067 802.267 616.533 798.8 633.6C784.533 703.867 735.6 762.933 669.867 789.2C654.933 795.2 633.6 801.067 622.533 802.267L614.933 803.067L632.533 716.133L650 629.333L692.667 591.733C716 570.933 746 544.267 759.2 532.4C772.533 520.533 784 510.8 784.8 510.667C785.733 510.667 788 515.067 790 520.267Z" fill="white"/>
<path d="M816.667 332.933C816.267 335.733 814.133 345.467 812 354.533L808.133 371.2L817.733 381.333C829.2 393.333 844 412.133 852.8 426C856.267 431.467 859.467 436 859.867 436C860.933 436 873.6 415.733 878 406.933L881.467 399.733L877.867 394.267C866.8 377.333 832 338.267 821.067 330.533L817.467 327.867L816.667 332.933Z" fill="white"/>
<path d="M927.6 389.867C924.133 392.4 916.933 396.667 911.6 399.333C906.4 402.133 901.867 404.533 901.6 404.667C901.467 404.8 906 414.133 911.867 425.467C923.6 448.4 932.8 470.667 938.4 490.267C942.8 505.733 942.267 505.467 963.067 502C978.533 499.467 980 498.933 980 496.667C980 493.467 972.133 467.6 966.667 452.933C960.533 436.4 945.6 404.8 938.4 393.067L933.867 385.467L927.6 389.867Z" fill="white"/>
<path d="M886.133 422.933C883.467 427.6 878.133 435.467 874.133 440.667L867.2 449.867L873.733 464.667C881.333 481.6 890.667 509.2 894 524.667C895.333 530.533 896.533 535.6 896.8 535.867C898 537.2 927.6 511.467 928.667 508C929.6 505.2 922.8 482.533 916 465.333C910.8 452.4 898.667 427.2 893.6 418.667L891.067 414.667L886.133 422.933Z" fill="white"/>
<path d="M969.333 515.467C963.067 516.4 955.2 517.6 951.867 518L945.733 518.8L948.133 532.4C952 554.4 953.733 581.467 952.933 604.8L952.133 626.267L958.267 627.2C961.6 627.6 970.267 628 977.333 628H990.4L991.333 612.267C993.467 579.067 987.333 512.933 982.267 513.467C981.333 513.6 975.6 514.533 969.333 515.467Z" fill="white"/>
<path d="M928 530C925.467 532.667 917.733 538.667 910.933 543.6C900.4 551.067 898.533 552.8 899.333 555.2C901.2 561.467 901.733 607.733 900.133 623.067C899.2 631.733 898.667 639.067 898.933 639.467C899.733 640.133 923.333 624.667 932.4 617.467L940.133 611.333L939.467 584C938.8 559.2 936 531.333 933.467 527.067C932.8 525.733 931.2 526.667 928 530Z" fill="white"/>
<path d="M601.333 553.6V560.8L607.067 562.267C610.133 563.2 615.2 566 618.267 568.533C625.733 575.067 629.333 582.8 629.333 592.8C629.2 608.533 620.667 619.067 603.733 624.533C601.867 625.067 601.333 626.8 601.333 632.133V638.933L606.4 638.133C620.133 635.6 633.2 624.933 639.733 610.933C644.8 600.133 644.8 585.2 639.733 574.4C633.6 561.2 619.867 550.267 605.733 547.333L601.333 546.4V553.6Z" fill="white"/>
<path d="M928.133 638.8C924.133 641.6 915.067 646.933 907.867 650.667C897.067 656.267 894.533 658.133 893.867 661.067C889.467 680.267 882.667 700.667 874.533 718.667C871.733 725.067 869.333 730.667 869.333 731.067C869.333 732.133 885.867 727.467 896.267 723.467C911.067 718 918.667 713.467 920.133 709.6C928 689.333 940 633.067 936.533 633.467C935.867 633.467 932.133 635.867 928.133 638.8Z" fill="white"/>
<path d="M948.8 648.8C946.667 666.933 936.667 704.133 928.267 724.8L925.467 731.733L932.4 736.267C941.467 742.267 956.533 750.667 958.267 750.667C959.867 750.667 969.467 726.267 974.667 708.933C979.333 693.333 984.8 669.333 987.2 654.267L988.933 642.667H978.133C972.267 642.667 963.333 642.267 958.533 641.867L949.733 640.933L948.8 648.8Z" fill="white"/>
<path d="M896.667 738.8C890.8 740.8 880.267 743.6 873.333 745.067L860.667 747.6L850 763.467C839.467 779.2 825.733 796.933 820.133 801.867C818.667 803.333 817.333 804.933 817.333 805.467C817.333 807.2 834.933 811.733 855.6 815.2C859.733 815.867 860.267 815.333 869.333 803.333C874.533 796.4 882.4 785.067 886.8 778C894.267 766.133 909.333 737.867 909.333 735.6C909.333 734.4 909.2 734.4 896.667 738.8Z" fill="white"/>
<path d="M913.067 757.867C904.8 774.533 893.6 792.4 881.067 809.067C875.333 816.667 870.4 823.333 870 824C869.333 825.2 879.467 838.8 888.133 848.533L894 854.933L902.133 845.2C912.8 832.133 924.667 815.2 934.4 799.2C942.533 785.733 952 767.6 952 765.6C952 764.933 949.733 763.467 947.067 762.133C944.267 760.8 937.067 756.533 930.933 752.533C924.933 748.533 919.733 745.333 919.6 745.333C919.467 745.333 916.533 750.933 913.067 757.867Z" fill="white"/>
<path d="M797.733 824.267C783.467 837.333 763.333 851.867 741.867 864.8C739.6 866.133 740.267 866.8 746.667 870.4C750.667 872.8 760.133 877.067 767.733 880L781.333 885.467L789.467 879.867C809.6 866.267 847.867 832.267 846.133 829.467C845.733 828.8 842.533 827.867 839.067 827.333C833.867 826.533 813.6 820.533 807.067 817.867C806.267 817.467 802 820.4 797.733 824.267Z" fill="white"/>
<path d="M848 847.467C833.867 861.867 815.6 877.333 798.667 889.467L785.467 898.8L787.6 903.733C790.267 910.267 798.533 926.533 800.933 930.267L802.933 933.2L814.667 925.333C832.533 913.333 852.4 897.067 868.933 880.933L884 866.267L876.8 858.133C872.933 853.6 867.467 846.8 864.8 842.933C862 839.2 859.6 836 859.467 836C859.333 836 854.133 841.2 848 847.467Z" fill="white"/>
<path d="M710.933 879.467C703.467 882.667 690.933 887.2 683.333 889.6C675.6 892 669.333 894.533 669.333 895.2C669.333 895.733 672.133 903.733 675.6 912.8C680.267 925.2 682.4 929.333 684.133 929.333C689.6 929.333 723.733 916.267 743.867 906.533L765.733 895.867L752.533 889.467C745.333 886 736 880.933 732 878.4L724.533 873.6L710.933 879.467Z" fill="white"/>
<path d="M759.333 913.467C744.4 921.6 721.067 931.467 702.933 937.467L689.067 942L690 949.333C691.467 962.267 695.067 980 696.267 980C699.333 980 735.2 967.2 749.867 960.933C768.267 952.933 789.733 941.6 789.067 940.267C776.933 915.333 772.533 906.8 772 906.8C771.6 906.8 766 909.733 759.333 913.467Z" fill="white"/>
<path d="M652.133 969.6C640 981.867 631.067 992 632.133 992C635.733 992 660.667 988 670.667 985.867L680.8 983.733L678.4 972.267C677.067 965.867 676 957.867 676 954.4C676 950.933 675.6 948 675.067 947.733C674.4 947.467 664.133 957.333 652.133 969.6Z" fill="white"/>
<path d="M887.467 154.667C862.533 164.4 857.333 199.467 878.4 215.6C885.2 220.8 891.467 222.667 901.733 222.667C915.6 222.667 925.6 216.533 931.867 203.867C946.8 174 918.267 142.667 887.467 154.667ZM906 175.2C915.2 179.067 917.2 189.733 910.133 196.8C906.533 200.4 904.533 201.333 900.267 201.333C885.2 201.333 881.333 181.333 895.2 175.2C900.4 172.933 900.533 172.933 906 175.2Z" fill="white"/>
<path d="M196.8 187.067C195.467 192.667 188.133 201.2 181.333 205.067L174.667 208.8L179.733 213.733L184.667 218.533L190 216.133C196.533 213.2 206.133 202.667 207.333 197.067C208.133 193.733 207.6 192.4 203.867 188.533C198.667 183.2 197.867 183.067 196.8 187.067Z" fill="white"/>
<path d="M212.933 198.4C208.267 203.333 208.267 208.4 213.2 223.067C215.467 229.467 216.8 234.667 216.267 234.667C215.733 234.667 211.067 230.533 206 225.333L196.8 216L190.933 221.733C180.933 231.467 180.133 229.6 203.467 252.4C214.933 263.467 225.6 273.333 227.2 274.267C231.867 276.933 236 276.267 240.133 272.133C245.2 266.933 245.2 261.2 240 246.933C237.867 240.8 236 235.467 236 234.933C236 234.533 240.533 238.533 246 244L256 253.867L263.333 246.667C267.333 242.667 270.667 239.067 270.667 238.533C270.667 238.133 260.533 228 248 216.133C228 197.2 224.933 194.667 220.933 194.667C217.867 194.667 215.467 195.733 212.933 198.4Z" fill="white"/>
<path d="M959.333 202.667C951.467 204.4 945.733 208.667 929.333 224.8L912.667 241.2L920.267 248.933L928 256.533L944.4 240.267C960.8 224.133 964.533 221.867 967.867 225.867C971.2 229.867 963.733 235.6 959.6 232.133C958.267 231.067 956.267 232.4 951.2 237.467L944.667 244.133L948.933 248C958.533 256.667 970.933 255.867 980.933 245.867C989.2 237.467 991.067 227.467 985.867 217.2C983.467 212.267 974 204.267 969.733 203.2C967.6 202.8 965.467 202.267 964.667 202.133C964 202 961.6 202.133 959.333 202.667Z" fill="white"/>
<path d="M994.133 243.2L987.467 248.933L990.4 252.667C992 254.667 993.333 256.8 993.333 257.467C993.333 258 985.333 264.933 975.733 272.8C966 280.667 957.467 287.467 956.933 288C956.4 288.533 958.667 292.533 962.133 296.8C965.6 301.067 968.667 304.933 968.8 305.2C969.067 305.467 977.2 299.2 986.933 291.333C996.667 283.467 1005.33 276.4 1006.27 275.733C1007.33 274.8 1009.07 275.867 1011.73 278.8L1015.6 283.2L1022.53 277.467C1026.27 274.267 1029.33 271.333 1029.33 270.667C1029.33 269.067 1003.87 238 1002.13 237.733C1001.33 237.467 997.733 240 994.133 243.2Z" fill="white"/>
<path d="M164.933 252.133C162.267 253.733 158.667 260.267 158.667 263.733C158.667 265.067 161.333 271.733 164.667 278.533C168 285.333 170.667 291.067 170.667 291.467C170.667 291.867 166.267 288.933 161.067 284.933C155.733 281.067 150.667 277.467 149.867 276.933C148.533 276.133 140.933 284.8 136.933 291.6C136.267 292.533 144.533 299.333 159.6 310.4C191.467 333.467 190.667 333.2 197.2 326.933C203.733 320.933 203.6 317.067 196.667 302.8C193.333 295.867 190.8 290.133 191.067 289.867C191.333 289.6 196 292.667 201.467 296.667C206.933 300.667 211.733 304 212.4 304C212.933 304 216 300.4 219.333 295.867L225.333 287.733L199.867 269.2C174.133 250.533 170.667 248.8 164.933 252.133Z" fill="white"/>
<path d="M1008.13 299.333C993.333 309.067 980.533 317.6 979.867 318.267C978.933 319.2 985.333 330.667 989.467 335.2C990 335.867 995.2 333.333 1001.33 329.467C1007.2 325.733 1012.27 322.667 1012.67 322.667C1012.93 322.667 1014.4 324.4 1015.87 326.533L1018.67 330.4L1007.6 337.467C1001.6 341.2 996.4 344.533 996.133 344.8C995.067 345.733 1007.2 362.8 1008.53 362.267C1009.47 361.867 1022.53 353.467 1037.73 343.6L1065.2 325.6L1059.87 317.2C1056.8 312.533 1054.13 308.4 1053.87 308.133C1053.6 307.867 1049.2 310.4 1044 313.733C1038.93 317.2 1034.27 320 1033.73 320C1033.07 320 1031.6 318.267 1030.4 316.133L1028.27 312.133L1036.93 306.4C1041.73 303.2 1046.27 300.267 1046.93 299.867C1048.13 299.067 1037.47 281.333 1036 281.467C1035.6 281.467 1023.07 289.6 1008.13 299.333Z" fill="white"/>
<path d="M120.8 318.133C118.133 323.2 116 327.6 116 328C116 328.4 119.733 332.8 124.133 337.733C128.667 342.667 132 347.067 131.6 347.467C131.2 347.867 126.267 345.867 120.8 342.933L110.667 337.733L106 346C103.467 350.667 101.333 355.067 101.333 355.733C101.333 357.067 158.533 388 160.933 388C161.467 388 164.133 384 166.667 379.2C170.667 371.6 171.067 370.133 169.333 369.067C168.267 368.4 162.667 365.333 156.933 362.133L146.533 356.533L149.2 353.2L151.867 350L163.733 356.133L175.6 362.4L180.667 353.067C184.667 345.467 185.333 343.467 183.867 342.4C180 339.867 158.667 329.333 157.2 329.333C156.4 329.333 153.6 330.4 150.933 331.6C147.067 333.467 146.133 333.6 145.6 332C145.2 331.067 141.733 326.533 137.6 322.133C124.267 307.333 126.267 307.733 120.8 318.133Z" fill="white"/>
<path d="M1061.33 352.133C1034.53 363.2 1031.6 364.533 1027.73 367.733C1022.8 372 1018.67 380 1018.67 385.6C1018.67 392.8 1024.4 403.333 1030.8 407.867C1041.07 415.333 1055.6 412.8 1065.07 402C1067.47 399.333 1069.33 395.6 1069.47 393.6C1069.73 387.6 1069.2 382.4 1068 379.2L1066.8 376.267L1058.13 379.733C1050.4 382.933 1049.47 383.733 1049.07 387.333C1048.67 390.8 1048.13 391.333 1044.67 391.333C1041.6 391.333 1040.53 390.667 1040.27 388.4C1039.73 384.533 1042 383.2 1065.07 374C1075.47 369.733 1084 365.6 1084 364.667C1084 361.333 1077.47 347.333 1075.73 347.067C1074.8 346.933 1068.27 349.2 1061.33 352.133Z" fill="white"/>
<path d="M90.8 379.333C86.9333 389.733 87.0667 400.267 91.3333 408.933C101.067 428.4 128.667 434.267 144.267 420.267C149.067 415.867 157.333 401.867 157.333 397.867C157.333 397.067 153.6 394.933 149.067 393.067L140.667 389.867L137.333 395.867C130.933 407.6 119.333 409.333 111.333 399.867C107.467 395.2 107.067 390.133 110 383.067C111.067 380.4 111.867 378.133 111.733 378C109.867 376.933 96.5333 372 95.2 372C94.2667 372 92.2667 375.333 90.8 379.333Z" fill="white"/>
<path d="M1065.07 408.533C1048.4 415.2 1034.4 421.2 1033.87 421.733C1033.2 422.4 1038.93 438.533 1040.8 441.067C1041.2 441.6 1101.73 417.2 1103.2 415.867C1104.53 414.667 1097.87 395.867 1096.27 396.133C1095.73 396.133 1081.73 401.733 1065.07 408.533Z" fill="white"/>
<path d="M79.2 431.867C67.2 437.467 60.8 453.733 65.8667 465.867C69.3333 474.267 75.7333 477.867 100.533 485.2C113.2 488.933 124.133 492 124.8 492C125.867 492 130.933 476.667 131.2 472.533C131.333 472.133 121.6 468.8 109.6 465.333C86.1333 458.533 82.8 456.8 85.2 452.133C86.1333 450.667 87.3333 449.333 88.1333 449.333C91.3333 449.333 94.6667 452.267 94.6667 455.2C94.6667 457.867 95.8667 458.533 103.333 460.667C108.133 461.867 112.533 462.533 113.067 462.133C113.6 461.6 114 457.467 114 452.933C114 442.8 110.8 437.6 101.867 433.333C93.3333 429.2 85.8667 428.667 79.2 431.867Z" fill="white"/>
<path d="M1079.6 442.4C1063.47 446.667 1049.47 451.067 1048 452.267C1045.07 454.933 1044.53 460.8 1046.8 465.733C1048.8 470.267 1053.73 472.667 1066 475.333C1071.87 476.667 1077.07 478 1077.73 478.533C1078.27 479.067 1072.93 480.8 1066 482.533C1057.2 484.667 1053.33 486.133 1053.33 487.467C1053.33 488.533 1054.27 493.333 1055.47 498.133C1057.2 504.933 1058.13 506.667 1059.87 506.133C1061.07 505.733 1073.07 502.667 1086.67 499.333C1100.27 496 1113.33 492.667 1115.73 491.867C1120.93 490.133 1124.53 484.133 1123.33 478.8C1122 472.533 1117.47 469.6 1103.47 466.133C1096.27 464.4 1090.27 462.667 1089.87 462.4C1089.6 462 1095.33 460.4 1102.67 458.667L1116 455.467L1115.2 451.067C1113.73 443.2 1111.07 435.467 1109.87 435.2C1109.2 435.067 1095.6 438.267 1079.6 442.4Z" fill="white"/>
<path d="M1127.33 441.6C1120.67 443.333 1120 444.4 1120 452.8C1120 461.067 1123.2 470.667 1127.07 474.4C1129.73 476.933 1130.67 477.067 1136 475.733C1139.33 474.933 1142.13 474.133 1142.4 474C1142.67 473.733 1141.33 471.467 1139.6 468.8C1135.47 462.8 1132.8 452 1133.73 445.2C1134.13 442.4 1134 440 1133.6 440.133C1133.07 440.267 1130.27 440.933 1127.33 441.6Z" fill="white"/>
<path d="M57.7333 497.6C50.1333 506.133 52.6667 512.133 68.2667 523.333C74.9333 528.133 79.8667 532 79.2 532C78.5333 532 72.2667 531.067 65.3333 530C56.5333 528.667 52.5333 528.533 51.8667 529.467C50.8 531.333 49.0667 548.133 49.8667 548.933C50.6667 549.733 104.667 557.333 109.467 557.333C111.467 557.333 114.533 556.133 116.533 554.533C119.333 552.4 120 550.667 120 546.267C119.867 539.2 118 536.8 104.8 527.467C99.0667 523.333 95.0667 520 96.1333 520C97.8667 520 110.933 521.867 118.8 523.2C122.267 523.867 122.4 523.6 123.867 513.733C124.667 508.133 125.067 503.333 124.8 503.067C123.867 502.133 70.6667 494.667 65.2 494.667C62 494.667 59.6 495.6 57.7333 497.6Z" fill="white"/>
<path d="M1096.67 545.333C1084.93 545.867 1072.53 546.4 1069.07 546.533L1062.67 546.667V557.467V568.4L1076.67 567.733L1090.67 567.067V570.8C1090.67 575.333 1089.2 575.867 1074 576.267L1063.33 576.667L1063.87 587.333C1064.13 593.2 1064.4 598.133 1064.53 598.267C1064.53 598.267 1071.47 598 1079.73 597.467C1094 596.667 1095.07 596.4 1098 593.067C1099.73 591.067 1101.33 588.8 1101.6 587.867C1102 586.667 1102.93 586.8 1105.47 588.4C1109.07 590.667 1131.87 597.867 1132.8 597.067C1133.07 596.667 1132.93 591.867 1132.53 586.267L1131.6 576L1120.13 572.533C1106.27 568.4 1104 566.667 1112.13 566.667C1115.33 566.667 1121.2 566.267 1125.07 565.867C1131.87 564.933 1132 564.8 1132 560.667C1132 558.267 1131.6 553.6 1131.2 550.133L1130.27 544L1124.13 544.267C1120.8 544.4 1108.4 544.933 1096.67 545.333Z" fill="white"/>
<path d="M86.5333 571.067C81.2 574.533 76.5333 583.467 75.2 592.4L74.4 598.8L82.1333 598.4C89.2 598 90 597.733 90.6667 594.667C92.2667 587.867 100 590.933 100 598.267C100 601.333 99.7333 601.333 85.6 601.333C76.1333 601.333 70.6667 600.8 69.6 599.733C68.5333 598.667 68 593.467 68 585.067V572H58H48L48.8 587.6C49.7333 606.4 51.8667 613.333 58.4 618.4L63.0667 622L90.9333 622.4L118.667 622.8V607.6C118.667 582.667 116.133 574.933 106.4 569.867C100.933 566.933 91.8667 567.467 86.5333 571.067Z" fill="white"/>
<path d="M1085.2 612.533C1081.87 613.333 1077.33 615.467 1075.07 617.067C1056.13 630.533 1053.87 654.8 1069.87 671.733C1085.87 688.8 1114.67 684.8 1126 664C1129.47 657.733 1130 655.333 1130 646.667C1130 638.933 1129.2 635.333 1127.07 631.2C1122.93 623.333 1112.93 615.067 1104.93 612.667C1096.93 610.267 1093.47 610.267 1085.2 612.533ZM1104.13 637.2C1106.93 640.133 1108 642.4 1108 646C1108 654.933 1103.6 659.867 1095.73 660C1085.87 660 1081.33 655.467 1081.33 645.733C1081.33 634.133 1095.73 628.8 1104.13 637.2Z" fill="white"/>
<path d="M88.6667 636.133C73.3334 638.133 59.8667 639.867 58.9334 639.867C55.8667 640.133 50.6667 646.4 50.6667 650C50.6667 658.667 54.9334 662 74.4 668.8C78.1334 670.133 81.3334 671.6 81.3334 672.133C81.3334 672.533 75.4667 673.6 68.4 674.533C61.3334 675.333 55.3334 676.267 55.2 676.4C54.8 676.8 57.3334 696.533 57.8667 696.933C58.6667 697.733 118.533 689.467 120.8 688.267C125.2 686 127.333 679.467 125.333 674.8C122.933 668.933 120.267 667.067 108 662.533C101.867 660.4 96.1334 658.133 95.4667 657.6C94.6667 657.2 99.8667 656 107.067 655.2C114.267 654.4 120.4 653.333 120.8 652.933C122.133 651.733 119.467 632.933 118 632.667C117.333 632.533 104.133 634 88.6667 636.133Z" fill="white"/>
<path d="M1055.6 681.067C1054.4 683.2 1050.27 701.333 1050.8 701.733C1051.07 702 1059.73 705.867 1070 710.4C1090.8 719.467 1090.67 719.733 1064 716.8C1054.8 715.733 1046.93 715.2 1046.53 715.733C1045.47 716.933 1041.07 734.8 1041.73 735.467C1042 735.733 1056.13 736.667 1073.07 737.467C1108.8 739.333 1110.8 738.933 1114.8 730.133C1116.13 727.067 1117.33 722.8 1117.33 720.533C1117.33 712.4 1114.67 710.533 1070.4 687.6C1062.4 683.6 1055.73 680.667 1055.6 681.067Z" fill="white"/>
<path d="M120.667 699.867C113.6 702 112.667 702.667 112.933 705.467C113.867 715.867 113.467 719.2 111.067 722.533C105.067 730.533 91.6 730.4 86.6667 722.267C85.2 719.867 84 717.067 84 716C83.8667 710.933 82.1333 710.4 72.9333 712.8C68 714 64 715.467 64 716C64 716.533 65.2 720.933 66.6667 725.6C71.8667 742.533 84.5333 751.6 101.467 750.4C122 748.933 136.4 733.067 134.267 714.533C133.333 707.067 130.667 697.333 129.467 697.467C129.067 697.467 125.067 698.667 120.667 699.867Z" fill="white"/>
<path d="M1038.93 741.067C1038.27 743.067 1036.4 747.733 1034.93 751.467L1032.13 758.267L1047.87 767.067C1071.2 780.4 1071.2 780.4 1050.13 775.867C1039.87 773.733 1030.53 772 1029.33 772C1027.73 772 1026 774.933 1023.33 781.467C1021.33 786.533 1019.87 791.067 1020.13 791.333C1020.4 791.6 1034.67 793.867 1051.73 796.533C1080.27 800.933 1083.07 801.2 1087.33 799.333C1092.67 797.2 1097.2 789.067 1097.33 781.733C1097.33 775.867 1093.6 772.667 1064.4 753.467L1040.13 737.6L1038.93 741.067Z" fill="white"/>
<path d="M117.067 757.867C92.1333 764.667 82 791.733 96.4 812.933C105.2 825.733 124.267 831.6 138 825.467C147.6 821.2 152.267 817.2 156.533 809.333C161.733 799.733 162.533 789.733 158.8 779.733C152.667 763.467 133.333 753.333 117.067 757.867ZM134.533 782.133C142.533 788.8 140.667 800.8 131.067 804.8C124.933 807.467 119.6 806.133 115.333 801.067C109.733 794.4 111.067 784.667 118.4 780.8C124 777.733 129.867 778.133 134.533 782.133Z" fill="white"/>
<path d="M1016.13 810.133C1009.07 813.733 1003.6 819.6 998.533 829.6L996 834.533L1003.6 838.533C1007.73 840.8 1011.47 842.667 1011.87 842.667C1012.27 842.667 1014.13 839.867 1016 836.533C1018.27 832.267 1020.67 829.733 1023.73 828.4C1026.27 827.333 1028.53 826.8 1028.93 827.067C1029.2 827.467 1027.33 832 1024.67 837.333C1022 842.667 1020 847.067 1020.27 847.333C1020.53 847.467 1023.73 849.2 1027.47 851.067L1034.13 854.4L1039.2 844.267C1042.93 836.8 1044.53 834.667 1045.47 836.133C1047.33 839.2 1046.8 846.933 1044.13 852.8L1041.6 858.267L1049.6 862.133C1057.33 865.867 1057.6 865.867 1059.47 863.333C1063.07 858.533 1066.67 846.533 1066.67 839.6C1066.67 815.067 1038.8 798.933 1016.13 810.133Z" fill="white"/>
<path d="M156.533 825.067C151.067 828.533 146.667 834.4 146.667 838.133C146.667 840.8 146 841.333 142.8 841.333C138.4 841.333 131.467 845.733 127.467 851.067C118 863.733 132.8 889.333 149.467 889.333C156.667 889.333 159.467 888 182.133 873.867L202.533 861.067L197.067 852.267C194 847.333 191.467 843.2 191.333 843.067C191.2 842.8 182 848.4 170.8 855.467C159.6 862.4 149.467 868 148.267 867.733C145.2 867.2 144.533 861.867 147.467 860.8C148.667 860.4 150.4 860.533 151.333 861.333C152.533 862.4 154.667 861.733 158.933 859.067C164.267 855.733 164.933 854.8 164.8 850.667C164.667 845.333 168 843.733 172 847.333C174.267 849.333 174.8 849.2 181.867 844.8L189.2 840L186.667 835.6C181.467 826.8 176.667 823.6 168.4 823.067C162.4 822.667 159.733 823.067 156.533 825.067Z" fill="white"/>
<path d="M986.933 848.667C983.067 854.133 980 859.067 980 859.6C980 860.267 987.867 866 997.467 872.667C1016.93 886 1019.07 888.133 1018.4 891.6C1017.47 896.4 1012.27 895.067 1000 886.533C988.267 878.533 988 878.267 989.867 875.333C991.733 872.533 991.467 872.133 984.933 867.6C981.2 864.933 977.733 863.067 977.2 863.467C975.733 864.4 958.267 889.467 958.933 889.867C969.2 897.467 972 898.933 973.867 897.467C975.333 896.133 978.4 897.733 989.733 905.467C1002 913.867 1004.67 915.2 1010.93 915.6C1025.6 916.8 1038.67 904.533 1038.67 889.733C1038.67 881.867 1035.6 874.533 1030.4 869.867C1028.8 868.4 1022.67 863.867 1016.93 860C1009.33 854.667 1006.8 852.267 1007.33 850.533C1007.87 848.933 1006.13 846.933 1001.47 843.467C997.867 840.8 994.667 838.667 994.4 838.667C994.133 838.667 990.8 843.2 986.933 848.667Z" fill="white"/>
<path d="M193.333 882.533C183.6 885.733 173.6 894.533 170 903.2C162.667 920.667 170.4 941.2 187.333 949.333C194.933 953.067 208.933 953.333 216.667 950.133C238.133 941.067 245.333 912.267 230.667 894.4C223.067 885.2 203.867 879.067 193.333 882.533ZM208.667 904.533C213.6 906.667 217.333 912.533 217.333 918.133C217.333 923.2 209.467 930.667 204.133 930.667C195.6 930.667 189.333 924.8 189.333 916.667C189.333 911.733 191.467 908.267 196.4 905.333C201.467 902.133 202.667 902.133 208.667 904.533Z" fill="white"/>
<path d="M951.733 898.4C949.067 901.333 946.133 906 945.2 908.8C942.933 915.733 943.067 927.467 945.733 933.6C949.2 941.867 945.733 941.067 935.867 931.2L926.667 922L920 928.667L913.333 935.467L922.133 945.067C931.6 955.467 931.467 957.6 921.467 954C909.467 949.867 895.067 952.667 886.267 961.067L882.667 964.533L888.8 970.8L894.933 977.067L899.2 974.533C906.933 969.733 916.133 972.267 921.2 980.4C924.8 986.133 924.8 991.467 921.2 997.2L918.4 1001.73L924.533 1007.87L930.533 1013.87L934.667 1010C944 1001.07 947.467 983.867 942.133 973.467C940.267 970.133 940.133 968.667 941.333 967.467C942.533 966.4 944.933 968.133 951.2 974.933C955.733 980 960 984 960.667 984C961.333 984 964.8 981.2 968.267 977.733L974.533 971.6L965.733 961.733C960.933 956.4 957.333 951.6 957.6 951.2C958 950.8 962 951.733 966.533 953.333C970.933 954.8 976 956 977.733 956C984 956 994.267 952 999.467 947.467L1004.67 942.8L998.4 936.4L992 930.133L988.133 932.4C986 933.6 982 934.667 979.333 934.667C975.333 934.667 973.333 933.6 969.2 929.467C964.667 925.067 964 923.467 964 918.4C964 914.4 964.933 911.2 966.533 909.067L969.2 905.733L962.8 899.467L956.4 893.2L951.733 898.4Z" fill="white"/>
<path d="M235.067 951.733C223.2 965.467 213.467 977.2 213.333 978C213.067 978.667 216.4 982.267 220.667 986L228.267 992.667L231.733 988.667C233.733 986.4 237.333 982.267 239.733 979.467L244.133 974.4L247.467 977.467C249.2 979.067 250.667 980.8 250.667 981.333C250.667 981.867 247.333 986 243.333 990.667L235.867 999.2L242.933 1005.6C246.8 1009.07 250.667 1011.87 251.6 1012C252.533 1012 263.2 1000.53 275.333 986.533L297.467 961.067L291.2 955.6C281.067 946.667 281.733 946.533 273.2 956.133C268.933 960.8 265.467 965.067 265.333 965.6C265.333 967.733 261.733 966.533 258.933 963.6L256.133 960.533L264.8 950.667L273.467 940.667L265.733 933.733C261.467 929.867 257.733 926.667 257.333 926.667C256.933 926.8 246.933 938 235.067 951.733Z" fill="white"/>
<path d="M368 1000.27C382.933 1022.4 391.2 1035.6 390.267 1036.13C389.333 1036.67 376.267 1038.4 361.067 1040.13C345.733 1041.87 333.333 1043.6 333.333 1044.13C333.333 1045.87 355.067 1059.07 371.733 1067.6C388.133 1076 407.733 1082.93 427.067 1087.47L437.467 1089.87L437.067 1109.6L436.667 1129.33L443.333 1131.2C499.067 1147.2 562.933 1154.8 616.533 1152C651.333 1150 672.8 1146.8 707.067 1138.4L729.333 1132.93L728.667 1120.8C728.267 1114.13 727.6 1105.87 727.2 1102.4L726.533 1096.13L731.6 1094.8C734.4 1094 742.533 1091.87 749.6 1090C771.733 1084.4 797.867 1072.4 821.733 1056.8C834.267 1048.67 836 1049.6 798.4 1045.33C780.133 1043.2 772.4 1041.87 772.933 1040.8C773.467 1040 783.867 1024.67 796 1006.67C808.267 988.667 818.667 973.2 819.333 972.133C820.533 970 821.2 969.6 805.333 980.133C782.533 995.333 757.467 1007.73 731.867 1016.67C716.267 1022 690.8 1028.67 680.4 1030.13L673.333 1031.07V1049.6C673.333 1063.2 672.933 1068.27 671.733 1068.67C667.2 1070.27 635.467 1073.6 614.267 1074.67C588.667 1075.87 558.667 1074.67 533.333 1071.33C519.067 1069.33 499.6 1066 494.4 1064.53C492.4 1063.87 492 1061.47 491.733 1044.93L491.333 1026.13L487.333 1025.07C485.2 1024.53 477.333 1022.8 470 1021.2C428.667 1012.27 389.733 995.333 353.067 970.533C348.933 967.6 345.2 965.333 344.8 965.333C344.533 965.333 354.933 981.067 368 1000.27ZM366.267 982C398.533 1002.4 440.533 1019.2 474.667 1025.47C479.467 1026.27 483.733 1027.47 484.267 1027.87C484.8 1028.4 477.733 1032.13 468.533 1036.27L451.733 1043.87L436.933 1038.67C423.2 1034 398.667 1023.87 386.267 1017.87C382.4 1016 378.933 1012 371.733 1001.33C366.533 993.6 360.133 984.533 357.733 980.933C355.2 977.467 353.467 974.667 353.867 974.667C354.133 974.667 359.733 978 366.267 982ZM809.467 982.267C808.8 983.6 802.533 992.933 795.467 1003.2C781.6 1023.47 783.733 1021.73 758.667 1032.4C743.867 1038.67 729.067 1044.4 720.133 1047.33L713.067 1049.6L695.867 1042C686.4 1037.73 678.8 1034 679.067 1033.87C679.2 1033.6 686.267 1032 694.667 1030.13C730.933 1022.27 768.267 1006.93 798.667 987.467C804.933 983.467 810.133 980.133 810.4 980.133C810.533 980 810.133 981.067 809.467 982.267ZM488 1046.8C488 1061.47 487.733 1062.8 485.733 1062.27C461.067 1055.6 447.2 1051.47 446.4 1050.8C445.467 1050 483.733 1031.2 487.067 1030.8C487.6 1030.67 488 1037.87 488 1046.8ZM704 1048.67C711.733 1052.13 718.533 1055.2 719.2 1055.6C721.2 1056.93 705.2 1061.47 678.4 1067.2C676.267 1067.73 676 1066.27 676 1051.87V1036L683.067 1039.2C686.8 1040.93 696.267 1045.2 704 1048.67ZM460.933 1058.53C500.533 1070.53 536.533 1076 582.267 1076.93C629.467 1078 662.4 1074.53 705.2 1064C714.267 1061.73 721.867 1060.13 722 1060.27C722.267 1060.53 722.667 1065.47 722.8 1071.2L723.333 1081.73L710.533 1085.47C631.733 1108.13 553.067 1108 463.067 1084.93C442.4 1079.73 440.667 1079.07 440.8 1076.27C440.8 1074.67 440.933 1068.8 441.067 1063.33C441.2 1057.87 441.867 1053.33 442.4 1053.33C442.933 1053.33 451.333 1055.73 460.933 1058.53Z" fill="white"/>
</svg>
